<?xml version="1.0" standalone="no"?>
<!DOCTYPE svg PUBLIC "-//W3C//DTD SVG 20010904//EN"
 "http://www.w3.org/TR/2001/REC-SVG-20010904/DTD/svg10.dtd">
<svg version="1.0" xmlns="http://www.w3.org/2000/svg"
 width="451.000000pt" height="546.000000pt" viewBox="0 0 451.000000 546.000000"
 preserveAspectRatio="xMidYMid meet">

<g transform="translate(0.000000,546.000000) scale(0.100000,-0.100000)"
fill="#000000" stroke="none">
<path d="M1005 5453 l-1000 -3 355 -355 355 -355 655 0 c659 0 776 -5 875 -37
282 -90 502 -334 566 -628 19 -86 16 -265 -6 -350 -20 -82 -79 -213 -126 -282
-109 -160 -281 -278 -484 -335 -80 -22 -80 -22 -1134 -26 l-1055 -3 354 -354
354 -354 1191 -4 c1319 -3 1245 0 1398 -70 106 -49 182 -103 263 -190 278
-292 306 -719 69 -1052 -81 -113 -187 -200 -328 -265 -173 -80 -68 -74 -1402
-78 l-1191 -3 -354 -355 -355 -354 1580 3 c1441 3 1587 5 1663 20 633 130
1109 605 1234 1230 29 148 31 422 4 567 -92 479 -399 887 -831 1103 -100 50
-230 98 -317 117 l-57 13 25 41 c94 153 178 371 211 546 26 144 24 440 -5 576
-88 409 -320 754 -662 983 -221 148 -505 242 -765 253 -44 2 -530 3 -1080 1z"/>
</g>
</svg>
