<?xml version="1.0" standalone="no"?>
<!DOCTYPE svg PUBLIC "-//W3C//DTD SVG 20010904//EN"
 "http://www.w3.org/TR/2001/REC-SVG-20010904/DTD/svg10.dtd">
<svg version="1.0" xmlns="http://www.w3.org/2000/svg"
 width="494.000000pt" height="547.000000pt" viewBox="0 0 494.000000 547.000000"
 preserveAspectRatio="xMidYMid meet">

<g transform="translate(0.000000,547.000000) scale(0.100000,-0.100000)"
fill="#000000" stroke="none">
<path d="M770 4550 l0 -910 330 0 330 0 0 580 0 581 663 -3 662 -3 70 -24
c270 -90 462 -291 531 -556 24 -92 24 -264 1 -360 -64 -261 -276 -480 -546
-562 -51 -16 -168 -18 -1430 -23 l-1374 -5 376 -325 376 -325 1343 -5 c1336
-6 1343 -6 1423 -27 352 -95 607 -338 712 -680 25 -81 27 -102 27 -263 1 -203
-13 -269 -89 -425 -120 -248 -338 -431 -616 -517 l-74 -23 -1027 -3 -1028 -3
0 786 0 785 -330 0 -330 0 0 -1115 0 -1115 1383 3 1382 3 100 22 c692 158
1194 700 1286 1389 17 127 6 423 -20 538 -96 434 -339 791 -701 1032 -111 75
-288 159 -412 197 -14 4 -6 22 46 109 194 324 252 713 160 1078 -134 530 -545
926 -1092 1051 -96 22 -106 22 -1114 25 l-1018 4 0 -911z"/>
</g>
</svg>
