<?xml version="1.0" standalone="no"?>
<!DOCTYPE svg PUBLIC "-//W3C//DTD SVG 20010904//EN"
 "http://www.w3.org/TR/2001/REC-SVG-20010904/DTD/svg10.dtd">
<svg version="1.0" xmlns="http://www.w3.org/2000/svg"
 width="64.000000pt" height="64.000000pt" viewBox="0 0 64.000000 64.000000"
 preserveAspectRatio="xMidYMid meet">
<metadata>
Created by potrace 1.16, written by Peter Selinger 2001-2019
</metadata>
<g transform="translate(0.000000,64.000000) scale(0.100000,-0.100000)"
fill="#000000" stroke="none">
<path d="M12 518 c-7 -7 -12 -42 -12 -85 l0 -73 100 0 100 0 0 85 0 85 -88 0
c-55 0 -92 -4 -100 -12z"/>
<path d="M270 445 l0 -85 185 0 185 0 0 73 c0 43 -5 78 -12 85 -8 8 -64 12
-185 12 l-173 0 0 -85z"/>
<path d="M0 207 c0 -43 5 -78 12 -85 8 -8 45 -12 100 -12 l88 0 0 85 0 85
-100 0 -100 0 0 -73z"/>
<path d="M270 195 l0 -85 173 0 c121 0 177 4 185 12 7 7 12 42 12 85 l0 73
-185 0 -185 0 0 -85z"/>
</g>
</svg>
